<?xml version="1.0" encoding="utf-8"?>
<svg id="master-artboard" viewBox="0 0 800 800" version="1.1" xmlns="http://www.w3.org/2000/svg" x="0px" y="0px" style="enable-background:new 0 0 336 235.2;" width="800px" height="800px"><defs><linearGradient id="gradient-0" gradientUnits="userSpaceOnUse" x1="104.99999618530273" y1="1065.4000244140625" x2="104.99999618530273" y2="1162" gradientTransform="matrix(0.9999364216961713, 0.011266865231055403, -0.006069793023793607, 0.5386954142746482, 7.059782844944738, 534.8529077635981)">
                <stop offset="0" style="stop-color: #b4b4b4"/>
                <stop offset="1" style="stop-color: #818181"/>
              </linearGradient><style id="ee-google-fonts">@import url(https://fonts.googleapis.com/css?family=Aldrich:400|Aladin:400);</style></defs><rect id="ee-background" x="0" y="0" width="800" height="800" style="fill: white; fill-opacity: 0; pointer-events: none;"/><g transform="matrix(-3.623188734054564, -1.0528604033130753e-7, 1.0528604033130753e-7, -3.623188734054564, 780.4259033203133, 4435.1455078125)"><g id="g-1" transform="matrix(0.6033632755279541, 0, 0, 0.6033632755279541, 96.52216141737316, 447.2545866360143)">
	<g id="g-2">
		<g>
			<path class="st0" d="M160.2,1162H49.8l55.2-96.6L160.2,1162z M60.2,1156h89.7l-44.8-78.5L60.2,1156z" style="fill: url('#gradient-0'); stroke: rgb(255, 255, 255); stroke-width: 0; fill-opacity: 1; stroke-opacity: 0;"/>
		</g>
	</g>
</g><path d="M 103.36698913574219 1135.019287109375 C 103.2736587524414 1134.672607421875 103.0169906616211 1133.529296875 102.59699249267578 1131.5892333984375 C 102.18365478515625 1129.656005859375 101.76032257080078 1128.1126708984375 101.32698822021484 1126.959228515625 C 100.89366149902344 1125.805908203125 100.38032531738281 1125.039306640625 99.78699493408203 1124.6593017578125 C 99.62699127197266 1124.5792236328125 99.54698944091797 1124.47265625 99.54698944091797 1124.3392333984375 C 99.54698944091797 1124.039306640625 99.9803237915039 1123.7926025390625 100.84699249267578 1123.5992431640625 C 101.71366119384766 1123.406005859375 102.38032531738281 1123.309326171875 102.84699249267578 1123.309326171875 C 103.32032775878906 1123.309326171875 103.60699462890625 1123.4459228515625 103.70699310302734 1123.71923828125 C 103.99365997314453 1124.3126220703125 104.36032104492188 1125.6392822265625 104.80699157714844 1127.6993408203125 C 105.72032165527344 1132.019287109375 106.39366149902344 1134.7392578125 106.82698822021484 1135.8592529296875 C 106.92032623291016 1136.0859375 107.04032135009766 1136.1993408203125 107.1869888305664 1136.1993408203125 C 107.32698822021484 1136.1993408203125 107.4736557006836 1136.059326171875 107.62699127197266 1135.779296875 C 107.78032684326172 1135.499267578125 107.98699188232422 1135.0992431640625 108.24699401855469 1134.5792236328125 C 108.51365661621094 1134.059326171875 108.87032318115234 1133.135986328125 109.3169937133789 1131.809326171875 C 109.76365661621094 1130.482666015625 109.98699188232422 1129.3292236328125 109.98699188232422 1128.3492431640625 C 109.98699188232422 1126.8492431640625 109.49365997314453 1125.785888671875 108.50698852539062 1125.1593017578125 C 108.42699432373047 1125.06591796875 108.38699340820312 1124.962646484375 108.38699340820312 1124.8492431640625 C 108.38699340820312 1124.50927734375 108.85032653808594 1124.172607421875 109.77699279785156 1123.8392333984375 C 110.70365905761719 1123.5059814453125 111.54365539550781 1123.3392333984375 112.29698944091797 1123.3392333984375 C 112.79032135009766 1123.3392333984375 113.0369873046875 1123.5693359375 113.0369873046875 1124.029296875 C 113.0369873046875 1125.46923828125 112.75032043457031 1127.1392822265625 112.17699432373047 1129.039306640625 C 111.59699249267578 1130.9326171875 110.90699005126953 1132.692626953125 110.10699462890625 1134.3193359375 C 109.30699157714844 1135.9393310546875 108.56365966796875 1137.3426513671875 107.87699127197266 1138.529296875 C 106.79032135009766 1140.3692626953125 106.1036605834961 1141.289306640625 105.8169937133789 1141.289306640625 C 105.67032623291016 1141.289306640625 105.53366088867188 1141.1759033203125 105.40699005126953 1140.9493408203125 C 104.92699432373047 1140.2625732421875 104.35032653808594 1138.6859130859375 103.67699432373047 1136.21923828125 L 103.36698913574219 1135.019287109375 Z" transform="matrix(-1.950700044631958, 1.2215207334520528e-7, -1.2215207334520528e-7, -1.950700044631958, 367.7129821777344, 3331.916748046875)" style="fill: rgb(186, 186, 186); white-space: pre; color: rgb(255, 255, 255); stroke: rgb(255, 255, 255); stroke-opacity: 0;"/><path d="M 86.16345977783203 1127.7298583984375 L 86.16345977783203 1135.58984375 L 92.11345672607422 1135.58984375 L 92.11345672607422 1133.4798583984375 L 94.4234619140625 1133.4798583984375 L 94.4234619140625 1135.58984375 C 94.4234619140625 1135.909912109375 94.36345672607422 1136.2099609375 94.24346160888672 1136.4898681640625 C 94.12345886230469 1136.776611328125 93.96012878417969 1137.023193359375 93.75345611572266 1137.2298583984375 C 93.54679107666016 1137.4365234375 93.30012512207031 1137.599853515625 93.01345825195312 1137.7198486328125 C 92.73345947265625 1137.83984375 92.43345642089844 1137.89990234375 92.11345672607422 1137.89990234375 L 86.16345977783203 1137.89990234375 C 85.85012817382812 1137.89990234375 85.55345916748047 1137.83984375 85.2734603881836 1137.7198486328125 C 84.99346160888672 1137.599853515625 84.7501220703125 1137.4365234375 84.54345703125 1137.2298583984375 C 84.3367919921875 1137.023193359375 84.17012786865234 1136.776611328125 84.04345703125 1136.4898681640625 C 83.9234619140625 1136.2099609375 83.86345672607422 1135.909912109375 83.86345672607422 1135.58984375 L 83.86345672607422 1127.7298583984375 C 83.86345672607422 1127.409912109375 83.9234619140625 1127.10986328125 84.04345703125 1126.8299560546875 C 84.17012786865234 1126.543212890625 84.3367919921875 1126.2965087890625 84.54345703125 1126.08984375 C 84.7501220703125 1125.8831787109375 84.99346160888672 1125.7198486328125 85.2734603881836 1125.599853515625 C 85.55345916748047 1125.4798583984375 85.85012817382812 1125.419921875 86.16345977783203 1125.419921875 L 92.11345672607422 1125.419921875 C 92.43345642089844 1125.419921875 92.73345947265625 1125.4798583984375 93.01345825195312 1125.599853515625 C 93.30012512207031 1125.7198486328125 93.54679107666016 1125.8831787109375 93.75345611572266 1126.08984375 C 93.96012878417969 1126.2965087890625 94.12345886230469 1126.543212890625 94.24346160888672 1126.8299560546875 C 94.36345672607422 1127.10986328125 94.4234619140625 1127.409912109375 94.4234619140625 1127.7298583984375 L 94.4234619140625 1129.83984375 L 92.11345672607422 1129.83984375 L 92.11345672607422 1127.7298583984375 L 86.16345977783203 1127.7298583984375 ZM 109.05463409423828 1135.58984375 C 109.05463409423828 1135.909912109375 108.99463653564453 1136.2099609375 108.8746337890625 1136.4898681640625 C 108.754638671875 1136.776611328125 108.59130096435547 1137.023193359375 108.38463592529297 1137.2298583984375 C 108.17797088623047 1137.4365234375 107.93463134765625 1137.599853515625 107.65463256835938 1137.7198486328125 C 107.38130187988281 1137.83984375 107.08463287353516 1137.89990234375 106.76463317871094 1137.89990234375 L 100.56463623046875 1137.89990234375 C 100.25130462646484 1137.89990234375 99.95463562011719 1137.83984375 99.67463684082031 1137.7198486328125 C 99.39463806152344 1137.599853515625 99.15129852294922 1137.4365234375 98.94463348388672 1137.2298583984375 C 98.73796844482422 1137.023193359375 98.57130432128906 1136.776611328125 98.44463348388672 1136.4898681640625 C 98.32463836669922 1136.2099609375 98.26463317871094 1135.909912109375 98.26463317871094 1135.58984375 L 98.26463317871094 1127.7298583984375 C 98.26463317871094 1127.409912109375 98.32463836669922 1127.10986328125 98.44463348388672 1126.8299560546875 C 98.57130432128906 1126.543212890625 98.73796844482422 1126.2965087890625 98.94463348388672 1126.08984375 C 99.15129852294922 1125.8831787109375 99.39463806152344 1125.7198486328125 99.67463684082031 1125.599853515625 C 99.95463562011719 1125.4798583984375 100.25130462646484 1125.419921875 100.56463623046875 1125.419921875 L 106.76463317871094 1125.419921875 C 107.08463287353516 1125.419921875 107.38130187988281 1125.4798583984375 107.65463256835938 1125.599853515625 C 107.93463134765625 1125.7198486328125 108.17797088623047 1125.8831787109375 108.38463592529297 1126.08984375 C 108.59130096435547 1126.2965087890625 108.754638671875 1126.543212890625 108.8746337890625 1126.8299560546875 C 108.99463653564453 1127.10986328125 109.05463409423828 1127.409912109375 109.05463409423828 1127.7298583984375 L 109.05463409423828 1135.58984375 M 100.56463623046875 1127.7298583984375 L 100.56463623046875 1135.58984375 L 106.76463317871094 1135.58984375 L 106.76463317871094 1127.7298583984375 L 100.56463623046875 1127.7298583984375 ZM 112.90017700195312 1127.7298583984375 C 112.90017700195312 1127.409912109375 112.9601821899414 1127.10986328125 113.0801773071289 1126.8299560546875 C 113.20684814453125 1126.543212890625 113.3735122680664 1126.2965087890625 113.5801773071289 1126.08984375 C 113.7868423461914 1125.8831787109375 114.03018188476562 1125.7198486328125 114.3101806640625 1125.599853515625 C 114.59017944335938 1125.4798583984375 114.88684844970703 1125.419921875 115.20018005371094 1125.419921875 L 121.63018035888672 1125.419921875 L 121.63018035888672 1120.60986328125 L 123.94017791748047 1120.60986328125 L 123.94017791748047 1137.89990234375 L 121.63018035888672 1137.89990234375 L 121.63018035888672 1135.7899169921875 C 121.61017608642578 1136.0765380859375 121.53350830078125 1136.349853515625 121.40017700195312 1136.60986328125 C 121.266845703125 1136.869873046875 121.09684753417969 1137.09326171875 120.89018249511719 1137.2799072265625 C 120.68350982666016 1137.4732666015625 120.44684600830078 1137.6265869140625 120.18017578125 1137.7398681640625 C 119.91351318359375 1137.8465576171875 119.63351440429688 1137.89990234375 119.34017944335938 1137.89990234375 L 115.20018005371094 1137.89990234375 C 114.88684844970703 1137.89990234375 114.59017944335938 1137.83984375 114.3101806640625 1137.7198486328125 C 114.03018188476562 1137.599853515625 113.7868423461914 1137.4365234375 113.5801773071289 1137.2298583984375 C 113.3735122680664 1137.023193359375 113.20684814453125 1136.776611328125 113.0801773071289 1136.4898681640625 C 112.9601821899414 1136.2099609375 112.90017700195312 1135.909912109375 112.90017700195312 1135.58984375 L 112.90017700195312 1127.7298583984375 M 115.20018005371094 1135.58984375 L 121.63018035888672 1135.58984375 L 121.63018035888672 1127.7298583984375 L 115.20018005371094 1127.7298583984375 L 115.20018005371094 1135.58984375 ZM 138.34178161621094 1132.83984375 L 130.081787109375 1132.83984375 L 130.081787109375 1135.58984375 L 138.34178161621094 1135.58984375 L 138.34178161621094 1137.89990234375 L 130.081787109375 1137.89990234375 C 129.76844787597656 1137.89990234375 129.47178649902344 1137.83984375 129.19178771972656 1137.7198486328125 C 128.9117889404297 1137.599853515625 128.66845703125 1137.4365234375 128.4617919921875 1137.2298583984375 C 128.255126953125 1137.023193359375 128.0884552001953 1136.776611328125 127.96178436279297 1136.4898681640625 C 127.84178924560547 1136.2099609375 127.78178405761719 1135.909912109375 127.78178405761719 1135.58984375 L 127.78178405761719 1127.7298583984375 C 127.78178405761719 1127.409912109375 127.84178924560547 1127.10986328125 127.96178436279297 1126.8299560546875 C 128.0884552001953 1126.543212890625 128.255126953125 1126.2965087890625 128.4617919921875 1126.08984375 C 128.66845703125 1125.8831787109375 128.9117889404297 1125.7198486328125 129.19178771972656 1125.599853515625 C 129.47178649902344 1125.4798583984375 129.76844787597656 1125.419921875 130.081787109375 1125.419921875 L 136.0317840576172 1125.419921875 C 136.35179138183594 1125.419921875 136.6517791748047 1125.4798583984375 136.93179321289062 1125.599853515625 C 137.21844482421875 1125.7198486328125 137.46511840820312 1125.8831787109375 137.67178344726562 1126.08984375 C 137.87844848632812 1126.2965087890625 138.04177856445312 1126.543212890625 138.1617889404297 1126.8299560546875 C 138.2817840576172 1127.10986328125 138.34178161621094 1127.409912109375 138.34178161621094 1127.7298583984375 L 138.34178161621094 1132.83984375 M 130.081787109375 1127.7298583984375 L 130.081787109375 1130.5299072265625 L 136.0317840576172 1130.5299072265625 L 136.0317840576172 1127.7298583984375 L 130.081787109375 1127.7298583984375 ZM 144.48297119140625 1127.7298583984375 L 144.48297119140625 1137.89990234375 L 142.18296813964844 1137.89990234375 L 142.18296813964844 1125.419921875 L 144.48297119140625 1125.419921875 L 144.48297119140625 1127.619873046875 C 144.49630737304688 1127.3199462890625 144.56629943847656 1127.033203125 144.69296264648438 1126.7598876953125 C 144.81964111328125 1126.4932861328125 144.98629760742188 1126.2598876953125 145.19296264648438 1126.0599365234375 C 145.39964294433594 1125.85986328125 145.63963317871094 1125.7032470703125 145.9129638671875 1125.58984375 C 146.18630981445312 1125.4765625 146.47962951660156 1125.419921875 146.79296875 1125.419921875 L 149.2429656982422 1125.419921875 C 149.56297302246094 1125.419921875 149.85963439941406 1125.4798583984375 150.13296508789062 1125.599853515625 C 150.4129638671875 1125.7198486328125 150.65963745117188 1125.8831787109375 150.8729705810547 1126.08984375 C 151.0796356201172 1126.2965087890625 151.2429656982422 1126.543212890625 151.36297607421875 1126.8299560546875 C 151.48963928222656 1127.10986328125 151.55296325683594 1127.409912109375 151.55296325683594 1127.7298583984375 L 151.55296325683594 1129.83984375 L 149.2429656982422 1129.83984375 L 149.2429656982422 1127.7298583984375 L 144.48297119140625 1127.7298583984375 ZM 161.9563446044922 1135.58984375 L 161.9563446044922 1132.699951171875 L 156.47633361816406 1132.699951171875 C 156.15634155273438 1132.699951171875 155.85633850097656 1132.639892578125 155.5763397216797 1132.5198974609375 C 155.2963409423828 1132.3931884765625 155.05300903320312 1132.2265625 154.84634399414062 1132.0198974609375 C 154.63967895507812 1131.813232421875 154.47633361816406 1131.5699462890625 154.35633850097656 1131.2899169921875 C 154.23634338378906 1131.0098876953125 154.17633056640625 1130.7099609375 154.17633056640625 1130.389892578125 L 154.17633056640625 1127.7298583984375 C 154.17633056640625 1127.409912109375 154.23634338378906 1127.10986328125 154.35633850097656 1126.8299560546875 C 154.47633361816406 1126.543212890625 154.63967895507812 1126.2965087890625 154.84634399414062 1126.08984375 C 155.05300903320312 1125.8831787109375 155.2963409423828 1125.7198486328125 155.5763397216797 1125.599853515625 C 155.85633850097656 1125.4798583984375 156.15634155273438 1125.419921875 156.47633361816406 1125.419921875 L 163.7863311767578 1125.419921875 L 163.7863311767578 1127.7298583984375 L 156.47633361816406 1127.7298583984375 L 156.47633361816406 1130.389892578125 L 161.9563446044922 1130.389892578125 C 162.27633666992188 1130.389892578125 162.572998046875 1130.449951171875 162.84634399414062 1130.5699462890625 C 163.1263427734375 1130.68994140625 163.3730010986328 1130.853271484375 163.58633422851562 1131.0599365234375 C 163.79299926757812 1131.2666015625 163.9563446044922 1131.5098876953125 164.0763397216797 1131.7899169921875 C 164.2030029296875 1132.0765380859375 164.26634216308594 1132.3798828125 164.26634216308594 1132.699951171875 L 164.26634216308594 1135.58984375 C 164.26634216308594 1135.909912109375 164.2030029296875 1136.2099609375 164.0763397216797 1136.4898681640625 C 163.9563446044922 1136.776611328125 163.79299926757812 1137.023193359375 163.58633422851562 1137.2298583984375 C 163.3730010986328 1137.4365234375 163.1263427734375 1137.599853515625 162.84634399414062 1137.7198486328125 C 162.572998046875 1137.83984375 162.27633666992188 1137.89990234375 161.9563446044922 1137.89990234375 L 154.17633056640625 1137.89990234375 L 154.17633056640625 1135.58984375 L 161.9563446044922 1135.58984375 Z" transform="matrix(-1.3788936138153076, -7.048081562821551e-10, 7.048081562821551e-10, -1.3788936138153076, 251.2548065185547, 2676.656494140625)" style="fill: rgb(242, 255, 251); white-space: pre; color: rgb(0, 0, 0); stroke: rgb(255, 255, 255); stroke-opacity: 0;"/></g></svg>